<svg viewBox="0 0 167.05818 112.38647" xmlns="http://www.w3.org/2000/svg">
   <path fill="currentColor"
      d="M 57.46271,111.93896 C 53.98006,110.58591 0,55.59477 0,53.39996 c 0,-3.16695 2.39324,-5.64997 5.4457,-5.64997 2.3119,0 7.09568,4.30347 27.92923,25.125 13.82672,13.81875 25.58019,25.125 26.11881,25.125 0.53862,0 23.04598,-22.05 50.01636,-49 C 152.61351,5.92917 158.91337,0 161.57358,0 163.23811,0 165.14,0.54 165.8,1.2 c 3.65793,3.65792 2.71485,4.73962 -50.96321,58.45379 -28.68977,28.70906 -52.89405,52.38942 -53.7873,52.62301 -0.89324,0.23359 -2.5073,0.0816 -3.58678,-0.33784 z" />
</svg>