<svg viewBox="0 0 37.835419 44.405893" xmlns="http://www.w3.org/2000/svg" xmlns:svg="http://www.w3.org/2000/svg">
   <defs id="defs51599" />
   <path fill="currentColor"
      d="m 19.18229,44.33 -0.26458,0.0661 -0.33073,-0.13229 -0.33073,-0.1323 V 28.28837 12.435419 h -0.1966 -0.1966 L 10.94191,19.35287 4.02076,26.27032 3.59788,26.10805 3.175,25.94578 v -0.47732 -0.47732 l 7.74942,-7.73307 7.74941,-7.733068 h 0.25592 0.25591 l 7.73738,7.740718 7.73738,7.74072 v 0.46967 0.46967 l -0.42288,0.16227 -0.42288,0.16227 -6.92114,-6.91745 -6.92115,-6.917451 H 19.77783 19.5833 L 19.5151,28.35454 19.4469,44.27367 Z M 18.82993,1.566614 0.66146,1.545724 0.33073,1.412272 0,1.278819 V 0.800009 0.321198 L 0.41852,0.160599 0.83703,0 h 18.08068 18.08068 l 0.41851,0.160599 0.41852,0.160599 V 0.79375 1.266302 L 37.4169,1.426901 36.99839,1.5875 Z" />
</svg>